<svg width="269" height="267" viewBox="0 0 269 267" fill="none" xmlns="http://www.w3.org/2000/svg">
<path d="M232.658 35.1313H31.0342C15.4542 35.1313 3.54004 47.0249 3.54004 62.5779V227.257C3.54004 242.81 15.4542 254.704 31.0342 254.704H232.658C248.238 254.704 260.152 242.81 260.152 227.257V62.5779C260.152 47.0249 248.238 35.1313 232.658 35.1313ZM68.6095 68.0672C69.5259 67.1523 69.5259 66.2374 70.4424 65.3225C71.3589 64.4077 72.2754 63.4928 73.1918 63.4928C76.8577 61.663 80.5236 62.5779 83.273 65.3225C84.1895 66.2374 85.1059 67.1523 85.1059 68.0672C86.0224 68.9821 86.0224 70.8119 86.0224 71.7267C86.0224 74.4714 85.1059 76.3012 83.273 78.1309C81.4401 79.9607 79.6071 80.8756 76.8577 80.8756C74.1083 80.8756 72.2754 79.9607 70.4424 78.1309C68.6095 76.3012 67.693 74.4714 67.693 71.7267C67.693 70.8119 67.693 68.9821 68.6095 68.0672ZM40.1989 71.7267C40.1989 68.9821 41.1153 67.1523 42.9483 65.3225L43.8648 64.4077C44.7812 64.4077 44.7812 63.4928 45.6977 63.4928C46.6142 62.5779 46.6142 62.5779 47.5306 62.5779C48.4471 62.5779 50.2801 62.5779 51.1965 62.5779C52.113 62.5779 52.113 62.5779 53.0295 63.4928C53.9459 63.4928 53.9459 64.4077 54.8624 64.4077L55.7789 65.3225C56.6954 66.2374 57.6118 67.1523 57.6118 68.0672C58.5283 68.9821 58.5283 70.8119 58.5283 71.7267C58.5283 72.6416 58.5283 74.4714 57.6118 75.3863C57.6118 76.3012 56.6954 77.216 55.7789 78.1309C53.9459 79.9607 52.113 80.8756 49.3636 80.8756C46.6142 80.8756 44.7812 79.9607 42.9483 78.1309C41.1153 76.3012 40.1989 74.4714 40.1989 71.7267ZM92.4377 193.406C96.1036 197.066 96.1036 202.555 92.4377 206.215C90.6048 208.045 88.7718 208.959 86.0224 208.959C83.273 208.959 81.4401 208.045 79.6071 206.215L52.113 178.768C48.4471 175.109 48.4471 169.619 52.113 165.96L79.6071 138.513C83.273 134.854 88.7718 134.854 92.4377 138.513C96.1036 142.173 96.1036 147.662 92.4377 151.322L71.3589 172.364L92.4377 193.406ZM100.686 79.9607C99.7695 79.0458 98.853 79.0458 97.9365 78.1309C97.0201 77.216 96.1036 76.3012 96.1036 75.3863C95.1871 74.4714 95.1871 72.6416 95.1871 71.7267C95.1871 70.8119 95.1871 68.9821 96.1036 68.0672C97.0201 67.1523 97.0201 66.2374 97.9365 65.3225C101.602 61.663 107.101 61.663 110.767 65.3225C111.684 66.2374 112.6 67.1523 112.6 68.0672C113.517 68.9821 113.517 70.8119 113.517 71.7267C113.517 72.6416 113.517 74.4714 112.6 75.3863C111.684 76.3012 111.684 77.216 110.767 78.1309C108.934 79.9607 107.101 80.8756 104.352 80.8756C103.435 80.8756 101.602 80.8756 100.686 79.9607ZM158.424 139.428L121.765 212.619C119.932 216.279 117.182 218.108 113.517 218.108C111.684 218.108 110.767 218.108 109.851 217.193C105.268 215.364 103.435 209.874 106.185 205.3L142.844 132.109C144.677 127.535 150.175 125.705 154.758 128.45C158.424 130.279 160.257 135.769 158.424 139.428ZM211.579 178.768L184.085 206.215C182.252 208.045 180.419 208.959 177.67 208.959C174.92 208.959 173.087 208.045 171.254 206.215C167.588 202.555 167.588 197.066 171.254 193.406L192.333 172.364L171.254 151.322C167.588 147.662 167.588 142.173 171.254 138.513C174.92 134.854 180.419 134.854 184.085 138.513L211.579 165.96C215.245 169.619 215.245 175.109 211.579 178.768Z" fill="white"/>
</svg>
