<svg width="245" height="245" viewBox="0 0 245 245" fill="none" xmlns="http://www.w3.org/2000/svg">
<path fill-rule="evenodd" clip-rule="evenodd" d="M88.4757 96.1283C73.9106 96.1283 62.1042 107.934 62.1042 122.498C62.1042 137.063 73.9111 148.87 88.4757 148.87H114.847V123.03C114.845 122.853 114.844 122.675 114.844 122.498C114.844 122.321 114.845 122.144 114.847 121.967V96.1283H88.4757ZM114.847 80.8158H88.4757C73.9111 80.8158 62.1042 69.0089 62.1042 54.4443C62.1042 39.8797 73.9111 28.0728 88.4757 28.0728H114.847V80.8158ZM130.159 28.0728V80.8154L156.525 80.8141C171.089 80.8141 182.9 69.0084 182.9 54.4443C182.9 39.8797 171.093 28.0728 156.528 28.0728H130.159ZM156.526 96.1266C142.103 96.128 130.385 107.707 130.159 122.075V122.92C130.385 137.291 142.104 148.87 156.528 148.87C171.093 148.87 182.9 137.063 182.9 122.498C182.9 107.934 171.09 96.1268 156.526 96.1266ZM88.4757 164.183C73.9115 164.183 62.1025 175.992 62.1025 190.557C62.1025 205.122 73.9094 216.929 88.474 216.929C103.039 216.929 114.846 205.122 114.846 190.557L114.847 164.183H88.4757Z" fill="white"/>
</svg>
