<svg width="237" height="237" viewBox="0 0 237 237" fill="none" xmlns="http://www.w3.org/2000/svg">
<path d="M201.914 201.964H166.818V146.97C166.818 133.856 166.552 116.979 148.53 116.979C130.232 116.979 127.437 131.249 127.437 146.002V201.964H92.3411V88.875H126.054V104.29H126.509C131.219 95.4024 142.674 86.0211 159.787 86.0211C195.347 86.0211 201.924 109.425 201.924 139.889L201.914 201.964ZM52.7029 73.4009C41.4059 73.4009 32.3307 64.2566 32.3307 53.009C32.3307 41.7713 41.4158 32.6369 52.7029 32.6369C63.9604 32.6369 73.0849 41.7713 73.0849 53.009C73.0849 64.2566 63.9505 73.4009 52.7029 73.4009ZM70.3001 201.964H35.1056V88.875H70.3001V201.964ZM219.472 0H17.4886C7.821 0 0 7.64325 0 17.0739V219.926C0 229.367 7.821 237 17.4886 237H219.442C229.1 237 237 229.367 237 219.926V17.0739C237 7.64325 229.1 0 219.442 0H219.472Z" fill="white"/>
</svg>
