<svg width="216" height="216" viewBox="0 0 216 216" fill="none" xmlns="http://www.w3.org/2000/svg">
<path d="M90 153H81V85.5L127.964 155.946C132.183 162.274 139.927 165.269 147.307 163.424L149.592 162.852C151.595 162.351 153 160.551 153 158.486V63C153 63 162 63 162 54H135C126 54 126 63 126 63H135V117L91.3464 55.8844C90.5013 54.7018 89.1383 54 87.6849 54H63C54 54 54 63 54 63H63V153C63 153 54 153 54 162H81C90 162 90 153 90 153Z" fill="white"/>
<path fill-rule="evenodd" clip-rule="evenodd" d="M9 36C9 21.0884 21.0884 9 36 9H180C194.912 9 207 21.0884 207 36V180C207 194.912 194.912 207 180 207H36C21.0884 207 9 194.912 9 180V36ZM36 27H180C184.971 27 189 31.0295 189 36V180C189 184.971 184.971 189 180 189H36C31.0295 189 27 184.971 27 180V36C27 31.0295 31.0295 27 36 27Z" fill="white"/>
</svg>
